<?xml version="1.0" encoding="UTF-8"?>
<!DOCTYPE svg PUBLIC "-//W3C//DTD SVG 1.1//EN" "http://www.w3.org/Graphics/SVG/1.1/DTD/svg11.dtd">
<!-- Creator: CorelDRAW 2020 (64-Bit) -->
<svg xmlns="http://www.w3.org/2000/svg" xml:space="preserve" width="659px" height="350px" version="1.1" style="shape-rendering:geometricPrecision; text-rendering:geometricPrecision; image-rendering:optimizeQuality; fill-rule:evenodd; clip-rule:evenodd"
viewBox="0 0 145.52 77.26"
 xmlns:xlink="http://www.w3.org/1999/xlink"
 xmlns:xodm="http://www.corel.com/coreldraw/odm/2003">
 <defs>
  <style type="text/css">
   <![CDATA[
    .fil3 {fill:#6B6A6B}
    .fil1 {fill:#A3A3A4}
    .fil2 {fill:#CBCBCC}
    .fil4 {fill:#DBDCDC}
    .fil0 {fill:#FEFEFE;fill-rule:nonzero}
   ]]>
  </style>
 </defs>
 <g id="Capa_x0020_1">
  <metadata id="CorelCorpID_0Corel-Layer"/>
  <path class="fil0" d="M11.07 32.52c-0.85,0 -1.71,-0.09 -2.58,-0.28 -0.88,-0.18 -1.75,-0.45 -2.61,-0.82 -1.42,-0.61 -2.56,-1.41 -3.42,-2.4 -0.87,-0.99 -1.49,-2.12 -1.88,-3.37 -0.39,-1.25 -0.58,-2.56 -0.58,-3.93 0,-1.43 0.18,-2.87 0.53,-4.3 0.35,-1.43 0.85,-2.81 1.49,-4.12 0.63,-1.31 1.35,-2.47 2.15,-3.5 -0.16,-0.59 -0.29,-1.27 -0.4,-2.05 -0.1,-0.77 -0.15,-1.56 -0.15,-2.35 0,-1.21 0.14,-2.36 0.41,-3.45 0.09,-0.32 0.25,-0.48 0.48,-0.48 0.16,0 0.24,0.11 0.24,0.34 0,0.14 -0.01,0.24 -0.04,0.31 -0.04,0.34 -0.08,0.69 -0.12,1.06 -0.03,0.36 -0.05,0.74 -0.05,1.12 0,0.78 0.05,1.54 0.14,2.29 0.09,0.75 0.19,1.45 0.31,2.09 1.66,-2.17 3.57,-3.78 5.72,-4.84 2.15,-1.06 4.41,-1.59 6.78,-1.59 0.61,0 1.21,0.04 1.77,0.11 1.83,0.2 3.32,0.65 4.48,1.35 1.16,0.69 2.02,1.54 2.58,2.54 0.56,1 0.83,2.06 0.83,3.18 0,1.09 -0.25,2.17 -0.75,3.24 -0.5,1.07 -1.23,2.05 -2.18,2.92 -0.96,0.88 -2.13,1.59 -3.5,2.12 -1.38,0.54 -2.94,0.8 -4.67,0.8 -0.38,0 -0.77,-0.01 -1.16,-0.03 -0.38,-0.02 -0.81,-0.07 -1.26,-0.14 -1.8,-0.27 -3.44,-0.85 -4.92,-1.74 -1.48,-0.89 -2.68,-2.25 -3.59,-4.1 -0.18,0.23 -0.43,0.69 -0.75,1.38 -0.32,0.7 -0.64,1.54 -0.95,2.52 -0.32,0.97 -0.6,2.04 -0.82,3.19 -0.23,1.15 -0.35,2.3 -0.35,3.47 0,1.11 0.15,2.19 0.45,3.22 0.29,1.04 0.81,1.95 1.54,2.74 0.72,0.78 1.71,1.37 2.97,1.76 0.61,0.18 1.25,0.31 1.91,0.41 0.66,0.09 1.33,0.13 2.02,0.13 1.32,0 2.63,-0.17 3.92,-0.51 1.3,-0.34 2.51,-0.84 3.62,-1.5 1.48,-0.87 2.62,-1.88 3.42,-3.03 0.8,-1.15 1.54,-2.44 2.22,-3.87 0.09,-0.23 0.22,-0.34 0.38,-0.34 0.11,0 0.17,0.08 0.17,0.23 0,0.12 -0.05,0.26 -0.14,0.41 -0.48,1.01 -0.96,1.92 -1.43,2.75 -0.48,0.84 -1.04,1.6 -1.68,2.31 -0.64,0.71 -1.44,1.4 -2.42,2.08 -1.12,0.78 -2.37,1.42 -3.76,1.92 -1.39,0.5 -2.85,0.75 -4.37,0.75zm4.78 -14.89c1.57,0 2.96,-0.24 4.17,-0.71 1.2,-0.46 2.22,-1.08 3.05,-1.84 0.83,-0.76 1.46,-1.61 1.88,-2.54 0.42,-0.94 0.63,-1.88 0.63,-2.84 0,-0.93 -0.21,-1.82 -0.65,-2.66 -0.43,-0.85 -1.08,-1.57 -1.96,-2.17 -0.88,-0.61 -2,-1 -3.36,-1.18 -0.5,-0.07 -1.01,-0.1 -1.51,-0.1 -1.55,0 -3.07,0.32 -4.56,0.97 -1.49,0.65 -2.89,1.56 -4.22,2.73 -1.32,1.18 -2.49,2.55 -3.51,4.12 0.79,1.98 1.92,3.44 3.36,4.37 1.45,0.93 3.1,1.52 4.97,1.74 0.59,0.07 1.16,0.11 1.71,0.11z"/>
  <path id="1" class="fil0" d="M28.08 15.13c-0.34,0 -0.62,-0.12 -0.84,-0.36 -0.22,-0.24 -0.32,-0.53 -0.32,-0.87 0,-0.43 0.17,-0.81 0.51,-1.13 0.34,-0.31 0.72,-0.47 1.13,-0.47 0.36,0 0.66,0.11 0.88,0.34 0.23,0.23 0.35,0.5 0.35,0.82 0,0.43 -0.18,0.82 -0.52,1.16 -0.34,0.34 -0.74,0.51 -1.19,0.51zm-2.77 13.87c-0.84,0 -1.43,-0.25 -1.78,-0.74 -0.34,-0.48 -0.51,-1.05 -0.51,-1.69 0,-0.34 0.04,-0.68 0.12,-1.04 0.08,-0.35 0.18,-0.67 0.29,-0.97l2.29 -5.84c0.07,-0.18 0.1,-0.34 0.1,-0.48 0,-0.23 -0.05,-0.43 -0.17,-0.6 -0.11,-0.17 -0.19,-0.29 -0.24,-0.36l1.88 -0.06c0.34,-0.03 0.59,0.01 0.74,0.11 0.14,0.11 0.22,0.23 0.22,0.36 0,0.14 -0.08,0.39 -0.24,0.76l-2.84 6.66c0,0 -0.06,0.14 -0.18,0.42 -0.13,0.29 -0.2,0.48 -0.23,0.57 -0.06,0.34 -0.11,0.55 -0.13,0.65 -0.03,0.09 -0.04,0.14 -0.04,0.17 0,0.02 0,0.11 0,0.27 0,0.3 0.08,0.55 0.23,0.75 0.14,0.21 0.4,0.31 0.76,0.31 0.23,0 0.49,-0.07 0.79,-0.21 0.3,-0.13 0.51,-0.27 0.65,-0.41 0.57,-0.59 1.13,-1.37 1.69,-2.34 0.56,-0.96 1.08,-1.93 1.55,-2.88 0.09,-0.23 0.21,-0.34 0.34,-0.34 0.12,0 0.18,0.08 0.18,0.23 0,0.1 -0.04,0.23 -0.11,0.41 -0.22,0.48 -0.51,1.07 -0.85,1.78 -0.34,0.71 -0.75,1.41 -1.21,2.1 -0.47,0.7 -0.98,1.27 -1.52,1.73 -0.55,0.45 -1.14,0.68 -1.78,0.68z"/>
  <path id="2" class="fil0" d="M27.02 29.27c0.82,-1.66 1.61,-3.3 2.37,-4.93 0.77,-1.63 1.55,-3.19 2.34,-4.67 0.46,-0.82 0.84,-1.39 1.15,-1.72 0.3,-0.33 0.72,-0.5 1.24,-0.5 0.19,0 0.38,0.03 0.58,0.09 0.21,0.06 0.41,0.09 0.62,0.09 0.14,0 0.24,-0.02 0.31,-0.04 -0.32,0.18 -0.73,0.63 -1.23,1.35 -0.5,0.72 -1.02,1.54 -1.54,2.48 -0.52,0.93 -0.99,1.81 -1.4,2.63 0.43,-0.53 0.88,-1.05 1.35,-1.57 0.46,-0.53 0.98,-1.03 1.55,-1.51 0.55,-0.48 1.2,-0.97 1.97,-1.48 0.76,-0.52 1.5,-0.94 2.23,-1.28 0.73,-0.35 1.31,-0.52 1.75,-0.52 0.15,0 0.27,0.01 0.34,0.04 0,0 -0.13,0.22 -0.38,0.66 -0.25,0.45 -0.56,1.03 -0.94,1.75 -0.37,0.71 -0.76,1.48 -1.14,2.28 -0.39,0.81 -0.74,1.59 -1.04,2.33 -0.31,0.74 -0.51,1.36 -0.6,1.86 -0.07,0.29 -0.1,0.57 -0.1,0.82 0,0.36 0.06,0.6 0.2,0.72 0.14,0.11 0.29,0.17 0.44,0.17 0.44,0 0.89,-0.24 1.37,-0.7 0.48,-0.47 0.94,-1.05 1.38,-1.73 0.45,-0.68 0.85,-1.35 1.2,-2 0.35,-0.65 0.61,-1.14 0.77,-1.48 0.09,-0.19 0.16,-0.29 0.2,-0.33 0.05,-0.03 0.12,-0.05 0.21,-0.05 0.13,0 0.2,0.09 0.2,0.27 0,0.12 -0.03,0.24 -0.1,0.38 -0.27,0.52 -0.6,1.15 -0.97,1.88 -0.38,0.73 -0.81,1.44 -1.28,2.13 -0.48,0.7 -1.01,1.28 -1.57,1.75 -0.57,0.46 -1.19,0.7 -1.85,0.7 -0.45,0 -0.93,-0.16 -1.42,-0.48 -0.49,-0.32 -0.73,-0.91 -0.73,-1.78 0,-0.25 0.02,-0.52 0.07,-0.8 0.04,-0.29 0.12,-0.6 0.24,-0.94 0.18,-0.46 0.39,-0.95 0.65,-1.47 0.25,-0.52 0.66,-1.24 1.22,-2.15 0.16,-0.25 0.26,-0.45 0.3,-0.58 0.03,-0.14 0.05,-0.25 0.05,-0.34 0,-0.28 -0.13,-0.41 -0.38,-0.41 -0.2,0 -0.51,0.11 -0.9,0.34 -0.4,0.23 -0.9,0.62 -1.49,1.19 -0.57,0.55 -1.25,1.32 -2.03,2.33 -0.79,1 -1.69,2.48 -2.72,4.44 -0.16,0.29 -0.33,0.45 -0.53,0.48 -0.19,0.02 -0.46,0.04 -0.8,0.06 -0.23,0.03 -0.44,0.04 -0.65,0.05 -0.2,0.02 -0.37,0.08 -0.51,0.19z"/>
  <path id="3" class="fil0" d="M43.41 29c-0.63,0 -1.2,-0.22 -1.7,-0.67 -0.51,-0.44 -0.76,-1.14 -0.76,-2.1 0,-0.75 0.15,-1.68 0.43,-2.78 0.29,-1.11 0.64,-2.26 1.06,-3.45 0.42,-1.2 0.84,-2.28 1.25,-3.26l-1.81 0c-0.16,0 -0.24,-0.12 -0.24,-0.34 0,-0.12 0.03,-0.22 0.08,-0.31 0.06,-0.09 0.15,-0.14 0.26,-0.14l2.05 0c0.39,-0.86 0.8,-1.71 1.23,-2.53 0.43,-0.82 0.85,-1.59 1.26,-2.32 0.53,-0.91 1.08,-1.59 1.68,-2.05 0.59,-0.45 1.1,-0.68 1.53,-0.68 0.34,0 0.63,0.13 0.86,0.39 0.22,0.26 0.34,0.66 0.34,1.18 0,0.32 -0.07,0.76 -0.21,1.31 -0.13,0.56 -0.35,1.15 -0.65,1.76 -0.15,0.32 -0.38,0.78 -0.66,1.37 -0.29,0.59 -0.57,1.12 -0.84,1.57l1.64 0c0.16,0 0.24,0.12 0.24,0.34 0,0.09 -0.02,0.19 -0.07,0.29 -0.04,0.11 -0.11,0.16 -0.2,0.16l-2.02 0c-0.57,0.98 -1.22,1.93 -1.95,2.87 -0.72,0.93 -1.59,1.86 -2.59,2.8 -0.07,0.2 -0.15,0.5 -0.26,0.89 -0.1,0.38 -0.19,0.78 -0.27,1.17 -0.08,0.4 -0.15,0.74 -0.21,1.01 -0.05,0.27 -0.08,0.41 -0.08,0.41 -0.07,0.3 -0.1,0.57 -0.1,0.82 0,0.48 0.11,0.83 0.34,1.04 0.23,0.22 0.49,0.33 0.78,0.33 0.19,0 0.37,-0.03 0.55,-0.09 0.18,-0.05 0.39,-0.16 0.61,-0.32 0.8,-0.57 1.5,-1.35 2.11,-2.33 0.6,-0.97 1.13,-1.92 1.58,-2.83 0.14,-0.27 0.28,-0.41 0.41,-0.41 0.09,0 0.14,0.07 0.14,0.2 0,0.07 -0.03,0.2 -0.1,0.38 -0.5,1.05 -0.92,1.89 -1.27,2.53 -0.34,0.64 -0.67,1.17 -0.99,1.59 -0.32,0.42 -0.69,0.83 -1.12,1.24 -0.32,0.32 -0.69,0.56 -1.1,0.72 -0.41,0.16 -0.82,0.24 -1.23,0.24zm2.7 -13.05l1.74 0c0.32,-0.59 0.62,-1.17 0.91,-1.74 0.28,-0.57 0.54,-1.14 0.77,-1.71 0.16,-0.36 0.29,-0.77 0.41,-1.23 0.11,-0.45 0.17,-0.81 0.17,-1.06 0,-0.34 -0.08,-0.51 -0.24,-0.51 -0.11,0 -0.28,0.1 -0.5,0.29 -0.21,0.19 -0.48,0.52 -0.8,0.97 -0.41,0.57 -0.81,1.31 -1.21,2.21 -0.4,0.9 -0.82,1.83 -1.25,2.78zm-2.22 5.36c0.66,-0.68 1.28,-1.41 1.86,-2.18 0.58,-0.78 1.13,-1.57 1.63,-2.39l-1.61 0c-0.36,0.84 -0.71,1.66 -1.02,2.46 -0.32,0.79 -0.61,1.5 -0.86,2.11z"/>
  <path id="4" class="fil0" d="M52.43 15.13c-0.34,0 -0.62,-0.12 -0.84,-0.36 -0.21,-0.24 -0.32,-0.53 -0.32,-0.87 0,-0.43 0.17,-0.81 0.51,-1.13 0.34,-0.31 0.72,-0.47 1.13,-0.47 0.36,0 0.66,0.11 0.89,0.34 0.23,0.23 0.34,0.5 0.34,0.82 0,0.43 -0.17,0.82 -0.51,1.16 -0.34,0.34 -0.74,0.51 -1.2,0.51zm-2.77 13.87c-0.84,0 -1.43,-0.25 -1.77,-0.74 -0.34,-0.48 -0.51,-1.05 -0.51,-1.69 0,-0.34 0.04,-0.68 0.12,-1.04 0.08,-0.35 0.17,-0.67 0.29,-0.97l2.28 -5.84c0.07,-0.18 0.11,-0.34 0.11,-0.48 0,-0.23 -0.06,-0.43 -0.17,-0.6 -0.12,-0.17 -0.2,-0.29 -0.24,-0.36l1.88 -0.06c0.34,-0.03 0.58,0.01 0.73,0.11 0.15,0.11 0.22,0.23 0.22,0.36 0,0.14 -0.08,0.39 -0.24,0.76l-2.83 6.66c0,0 -0.06,0.14 -0.19,0.42 -0.13,0.29 -0.2,0.48 -0.22,0.57 -0.07,0.34 -0.12,0.55 -0.14,0.65 -0.02,0.09 -0.03,0.14 -0.03,0.17 0,0.02 0,0.11 0,0.27 0,0.3 0.07,0.55 0.22,0.75 0.15,0.21 0.4,0.31 0.77,0.31 0.23,0 0.49,-0.07 0.78,-0.21 0.3,-0.13 0.52,-0.27 0.65,-0.41 0.57,-0.59 1.14,-1.37 1.69,-2.34 0.56,-0.96 1.08,-1.93 1.56,-2.88 0.09,-0.23 0.2,-0.34 0.34,-0.34 0.11,0 0.17,0.08 0.17,0.23 0,0.1 -0.03,0.23 -0.1,0.41 -0.23,0.48 -0.52,1.07 -0.86,1.78 -0.34,0.71 -0.74,1.41 -1.21,2.1 -0.47,0.7 -0.97,1.27 -1.52,1.73 -0.55,0.45 -1.14,0.68 -1.78,0.68z"/>
  <path id="5" class="fil0" d="M62 29.1c-0.26,0.02 -0.54,-0.03 -0.86,-0.17 -0.32,-0.14 -0.6,-0.39 -0.84,-0.75 -0.23,-0.36 -0.35,-0.88 -0.35,-1.54 0,-0.54 0.1,-1.2 0.3,-1.98 -0.27,0.43 -0.62,0.96 -1.06,1.59 -0.43,0.63 -0.9,1.18 -1.4,1.66 -0.43,0.41 -0.84,0.7 -1.23,0.88 -0.38,0.19 -0.74,0.28 -1.05,0.28 -0.6,0 -1.08,-0.27 -1.44,-0.81 -0.36,-0.53 -0.55,-1.23 -0.55,-2.1 0,-0.91 0.23,-1.94 0.69,-3.1 0.45,-1.17 1.19,-2.37 2.22,-3.62 0.66,-0.8 1.46,-1.44 2.41,-1.93 0.94,-0.49 1.87,-0.74 2.78,-0.74 0.52,0 1.02,0.09 1.5,0.26 0.48,0.17 0.9,0.45 1.27,0.83 0.16,0.16 0.24,0.35 0.24,0.55 0,0.14 -0.06,0.25 -0.18,0.34 -0.11,0.09 -0.26,0.12 -0.44,0.07 -0.25,-0.8 -0.79,-1.19 -1.6,-1.19 -0.39,0 -0.84,0.12 -1.34,0.37 -0.77,0.41 -1.57,1.08 -2.41,2.02 -0.83,0.93 -1.55,1.9 -2.16,2.9 -0.1,0.14 -0.24,0.4 -0.43,0.79 -0.19,0.38 -0.38,0.81 -0.56,1.29 -0.19,0.48 -0.31,0.95 -0.38,1.4 -0.02,0.14 -0.03,0.24 -0.03,0.29 0,0.06 0,0.15 0,0.26 0,0.75 0.28,1.13 0.85,1.13 0.68,0 1.46,-0.5 2.32,-1.51 0.59,-0.72 1.13,-1.49 1.61,-2.28 0.48,-0.8 0.97,-1.66 1.47,-2.57 0.34,-0.61 0.66,-1.12 0.95,-1.53 0.3,-0.41 0.72,-0.62 1.27,-0.62 0.25,0 0.5,0.04 0.75,0.1 0.25,0.07 0.51,0.08 0.78,0.04 -0.18,0.18 -0.42,0.52 -0.73,1.02 -0.31,0.5 -0.63,1.07 -0.97,1.71 -0.35,0.64 -0.65,1.29 -0.93,1.95 -0.27,0.66 -0.46,1.23 -0.58,1.71 -0.02,0.13 -0.05,0.33 -0.08,0.58 -0.04,0.25 -0.05,0.43 -0.05,0.54 0,0.64 0.18,0.96 0.54,0.96 0.37,0 0.76,-0.22 1.18,-0.65 0.42,-0.43 0.84,-0.97 1.25,-1.6 0.41,-0.64 0.78,-1.29 1.12,-1.93 0.35,-0.65 0.62,-1.18 0.82,-1.59 0.1,-0.23 0.23,-0.34 0.41,-0.34 0.12,0 0.18,0.08 0.18,0.23 0,0.07 -0.04,0.2 -0.11,0.38 -0.27,0.57 -0.6,1.21 -0.99,1.93 -0.38,0.72 -0.81,1.41 -1.26,2.08 -0.46,0.68 -0.93,1.23 -1.42,1.68 -0.49,0.44 -0.98,0.69 -1.48,0.73z"/>
  <path id="6" class="fil0" d="M92.4 32.28c-0.12,0 -0.22,0 -0.31,0 -0.09,0 -0.18,-0.01 -0.28,-0.04 -1.09,-0.2 -1.63,-1.18 -1.63,-2.93 0,-1.41 0.35,-3.32 1.05,-5.71 0.71,-2.39 1.78,-5.27 3.21,-8.64 0.41,-0.96 0.82,-2.03 1.23,-3.23 0.41,-1.19 0.76,-2.39 1.05,-3.6 0.28,-1.21 0.42,-2.3 0.42,-3.28 0,-0.71 -0.09,-1.33 -0.27,-1.86 -0.18,-0.54 -0.49,-0.93 -0.92,-1.18 -0.5,-0.32 -1.06,-0.55 -1.66,-0.7 -0.6,-0.15 -1.23,-0.22 -1.89,-0.22 -1.19,0 -2.43,0.21 -3.73,0.63 -1.3,0.42 -2.58,1.01 -3.86,1.76 -1.27,0.75 -2.48,1.63 -3.62,2.63 -1.14,1 -2.14,2.09 -3.02,3.26 -0.88,1.17 -1.54,2.39 -2,3.64 -0.3,0.84 -0.52,1.64 -0.67,2.39 -0.14,0.75 -0.22,1.46 -0.22,2.12 0,1.36 0.28,2.51 0.82,3.43 0.55,0.92 1.26,1.61 2.14,2.07 0.87,0.45 1.8,0.68 2.78,0.68 0.96,0 1.91,-0.23 2.85,-0.7 0.95,-0.47 1.8,-1.09 2.56,-1.86 0.77,-0.78 1.38,-1.63 1.83,-2.56 0.46,-0.94 0.69,-1.88 0.69,-2.84 0,-0.77 -0.16,-1.45 -0.48,-2.03 -0.32,-0.58 -0.86,-0.87 -1.61,-0.87 -0.16,0 -0.32,0.01 -0.49,0.03 -0.17,0.03 -0.35,0.07 -0.53,0.14 -0.23,0.07 -0.41,0.1 -0.55,0.1 -0.11,0 -0.17,-0.03 -0.17,-0.1 0,-0.05 0.05,-0.12 0.14,-0.22 0.09,-0.11 0.21,-0.19 0.37,-0.26 0.66,-0.3 1.28,-0.44 1.85,-0.44 0.93,0 1.66,0.35 2.18,1.06 0.53,0.7 0.79,1.56 0.79,2.56 0,1.09 -0.31,2.16 -0.94,3.21 -0.63,1.05 -1.44,2 -2.44,2.85 -1.01,0.85 -2.09,1.54 -3.25,2.05 -1.16,0.51 -2.28,0.77 -3.35,0.77 -1.2,0 -2.35,-0.33 -3.45,-0.99 -1.09,-0.66 -1.98,-1.59 -2.66,-2.79 -0.68,-1.19 -1.02,-2.59 -1.02,-4.18 0,-0.73 0.08,-1.49 0.25,-2.29 0.17,-0.8 0.44,-1.62 0.8,-2.46 0.76,-1.73 1.8,-3.31 3.15,-4.75 1.34,-1.43 2.84,-2.67 4.51,-3.7 1.66,-1.04 3.35,-1.84 5.09,-2.39 1.73,-0.56 3.38,-0.84 4.95,-0.84 1.39,0 2.63,0.24 3.72,0.72 1.21,0.52 2.06,1.3 2.56,2.32 0.5,1.02 0.75,2.17 0.75,3.45 0,1.39 -0.23,2.86 -0.7,4.42 -0.46,1.56 -1.05,3.05 -1.76,4.46 -0.72,1.48 -1.38,3.02 -1.98,4.63 -0.59,1.6 -1.09,3.13 -1.5,4.58 -0.41,1.44 -0.71,2.69 -0.89,3.74 -0.04,0.25 -0.08,0.48 -0.1,0.7 -0.02,0.21 -0.03,0.41 -0.03,0.59 0,1.07 0.35,1.61 1.05,1.61 0.48,0 1.05,-0.2 1.71,-0.6 0.66,-0.4 1.35,-0.89 2.07,-1.48 0.72,-0.6 1.41,-1.22 2.07,-1.87 0.66,-0.64 1.23,-1.23 1.7,-1.74 0.48,-0.51 0.81,-0.87 0.99,-1.07 1.92,-2.24 3.42,-4.47 4.51,-6.72 1.1,-2.24 1.64,-4.26 1.64,-6.06 0,-0.41 -0.03,-0.82 -0.1,-1.23 -0.09,-0.59 -0.22,-1 -0.38,-1.23 -0.16,-0.23 -0.34,-0.36 -0.54,-0.41 -0.21,-0.04 -0.45,-0.09 -0.72,-0.13 -0.3,-0.05 -0.52,-0.14 -0.67,-0.28 -0.14,-0.13 -0.22,-0.26 -0.22,-0.37 0,-0.23 0.2,-0.34 0.58,-0.34 0.05,0 0.11,0 0.19,0.01 0.08,0.01 0.17,0.03 0.26,0.05 0.43,0.12 0.91,0.37 1.43,0.76 0.53,0.38 0.98,0.91 1.37,1.57 0.38,0.66 0.58,1.49 0.58,2.49 0,0.93 -0.22,1.97 -0.65,3.11 -0.64,1.66 -1.47,3.29 -2.49,4.9 -1.03,1.61 -2.16,3.11 -3.4,4.51 -1.24,1.4 -2.51,2.64 -3.81,3.72 -1.3,1.08 -2.55,1.93 -3.74,2.55 -1.2,0.61 -2.26,0.92 -3.19,0.92z"/>
  <path id="7" class="fil0" d="M112.82 15.13c-0.34,0 -0.62,-0.12 -0.84,-0.36 -0.21,-0.24 -0.32,-0.53 -0.32,-0.87 0,-0.43 0.17,-0.81 0.51,-1.13 0.34,-0.31 0.72,-0.47 1.13,-0.47 0.36,0 0.66,0.11 0.89,0.34 0.23,0.23 0.34,0.5 0.34,0.82 0,0.43 -0.17,0.82 -0.51,1.16 -0.34,0.34 -0.74,0.51 -1.2,0.51zm-2.77 13.87c-0.84,0 -1.43,-0.25 -1.77,-0.74 -0.34,-0.48 -0.51,-1.05 -0.51,-1.69 0,-0.34 0.04,-0.68 0.12,-1.04 0.08,-0.35 0.17,-0.67 0.29,-0.97l2.28 -5.84c0.07,-0.18 0.11,-0.34 0.11,-0.48 0,-0.23 -0.06,-0.43 -0.17,-0.6 -0.12,-0.17 -0.2,-0.29 -0.24,-0.36l1.88 -0.06c0.34,-0.03 0.58,0.01 0.73,0.11 0.15,0.11 0.22,0.23 0.22,0.36 0,0.14 -0.08,0.39 -0.24,0.76l-2.83 6.66c0,0 -0.06,0.14 -0.19,0.42 -0.13,0.29 -0.2,0.48 -0.22,0.57 -0.07,0.34 -0.12,0.55 -0.14,0.65 -0.02,0.09 -0.03,0.14 -0.03,0.17 0,0.02 0,0.11 0,0.27 0,0.3 0.07,0.55 0.22,0.75 0.15,0.21 0.4,0.31 0.77,0.31 0.23,0 0.49,-0.07 0.78,-0.21 0.3,-0.13 0.52,-0.27 0.65,-0.41 0.57,-0.59 1.14,-1.37 1.69,-2.34 0.56,-0.96 1.08,-1.93 1.56,-2.88 0.09,-0.23 0.2,-0.34 0.34,-0.34 0.11,0 0.17,0.08 0.17,0.23 0,0.1 -0.03,0.23 -0.1,0.41 -0.23,0.48 -0.52,1.07 -0.86,1.78 -0.34,0.71 -0.74,1.41 -1.21,2.1 -0.47,0.7 -0.97,1.27 -1.52,1.73 -0.55,0.45 -1.14,0.68 -1.78,0.68z"/>
  <path id="8" class="fil0" d="M122.56 29c-0.62,0 -1.13,-0.31 -1.54,-0.92 -0.12,-0.18 -0.22,-0.42 -0.31,-0.72 -0.09,-0.3 -0.14,-0.63 -0.14,-0.99 0,-0.21 0.02,-0.42 0.04,-0.63 0.02,-0.22 0.07,-0.44 0.14,-0.67 -0.32,0.5 -0.69,1.05 -1.11,1.66 -0.43,0.6 -0.9,1.13 -1.44,1.57 -0.53,0.44 -1.13,0.67 -1.79,0.67 -0.23,0 -0.47,-0.04 -0.72,-0.11 -0.61,-0.18 -1.05,-0.5 -1.31,-0.95 -0.27,-0.46 -0.4,-1.01 -0.4,-1.64 0,-0.71 0.14,-1.48 0.43,-2.33 0.28,-0.84 0.65,-1.66 1.09,-2.46 0.45,-0.79 0.91,-1.48 1.39,-2.04 0.68,-0.8 1.46,-1.44 2.35,-1.92 0.89,-0.48 1.79,-0.71 2.7,-0.71 0.82,0 1.6,0.21 2.32,0.64 0.35,-0.63 0.71,-1.34 1.1,-2.13 0.38,-0.79 0.77,-1.57 1.16,-2.34 0.39,-0.77 0.73,-1.49 1.02,-2.14 0.3,-0.64 0.53,-1.14 0.69,-1.48 0.34,-0.8 0.66,-1.3 0.97,-1.52 0.31,-0.22 0.68,-0.33 1.11,-0.33 0.25,0 0.53,0.03 0.84,0.09 0.3,0.06 0.61,0.07 0.9,0.05 -0.14,0.14 -0.41,0.53 -0.84,1.18 -0.42,0.65 -0.91,1.47 -1.48,2.48 -0.57,1 -1.18,2.1 -1.83,3.29 -0.65,1.2 -1.29,2.4 -1.91,3.62 -0.63,1.22 -1.21,2.37 -1.74,3.45 -0.54,1.08 -0.97,2.01 -1.28,2.79 -0.1,0.18 -0.23,0.55 -0.4,1.11 -0.17,0.55 -0.25,1.04 -0.25,1.45 0,0.29 0.07,0.55 0.2,0.77 0.14,0.21 0.37,0.32 0.68,0.32 0.44,0 0.88,-0.22 1.32,-0.66 0.44,-0.45 0.87,-1 1.28,-1.64 0.41,-0.65 0.77,-1.29 1.09,-1.92 0.32,-0.62 0.56,-1.12 0.72,-1.48 0.11,-0.25 0.25,-0.38 0.41,-0.38 0.14,0 0.21,0.1 0.21,0.31 0,0.02 0,0.06 0,0.12 0,0.06 -0.03,0.12 -0.07,0.19 -0.21,0.47 -0.49,1.07 -0.84,1.77 -0.35,0.71 -0.77,1.41 -1.25,2.12 -0.47,0.71 -1.01,1.29 -1.6,1.76 -0.59,0.47 -1.23,0.7 -1.91,0.7zm-5.91 -1.03c0.32,0 0.71,-0.17 1.19,-0.52 0.48,-0.36 0.99,-0.92 1.54,-1.7 0.64,-0.91 1.37,-2.04 2.19,-3.41 0.82,-1.37 1.62,-2.81 2.42,-4.34 -0.3,-0.27 -0.64,-0.41 -1.02,-0.41 -0.64,0 -1.35,0.3 -2.14,0.89 -0.78,0.59 -1.55,1.34 -2.29,2.25 -0.74,0.91 -1.36,1.84 -1.86,2.77 -0.34,0.64 -0.59,1.22 -0.73,1.74 -0.15,0.53 -0.23,0.98 -0.23,1.37 0,0.91 0.31,1.36 0.93,1.36z"/>
  <path id="9" class="fil0" d="M130.04 29.14c-0.85,0 -1.6,-0.28 -2.28,-0.82 -0.67,-0.55 -1,-1.38 -1,-2.5 0,-1.02 0.25,-2.12 0.75,-3.29 0.5,-1.18 1.14,-2.21 1.91,-3.09 0.66,-0.78 1.4,-1.42 2.22,-1.92 0.82,-0.5 1.6,-0.75 2.32,-0.75 0.51,0 0.94,0.14 1.3,0.41 0.39,0.3 0.58,0.72 0.58,1.27 0,0.56 -0.21,1.19 -0.65,1.87 -0.43,0.69 -1.04,1.32 -1.84,1.92 -0.34,0.25 -0.77,0.49 -1.3,0.71 -0.52,0.23 -1.05,0.42 -1.57,0.57 -0.52,0.15 -0.96,0.22 -1.3,0.22 -0.11,0.27 -0.22,0.64 -0.32,1.09 -0.1,0.46 -0.16,0.92 -0.16,1.4 0,0.57 0.12,1.08 0.35,1.54 0.22,0.46 0.64,0.68 1.26,0.68 0.75,0 1.43,-0.21 2.05,-0.65 0.61,-0.43 1.16,-0.97 1.64,-1.62 0.48,-0.65 0.88,-1.3 1.21,-1.96 0.33,-0.66 0.6,-1.22 0.8,-1.68 0.14,-0.32 0.32,-0.47 0.55,-0.47 0.11,0 0.17,0.05 0.17,0.17 0,0.09 -0.03,0.2 -0.1,0.34 -0.32,0.68 -0.66,1.4 -1.03,2.17 -0.36,0.76 -0.79,1.48 -1.29,2.15 -0.51,0.67 -1.1,1.21 -1.8,1.62 -0.69,0.41 -1.52,0.62 -2.47,0.62zm-0.62 -6.02c0.32,0 0.86,-0.12 1.61,-0.35 0.75,-0.24 1.43,-0.62 2.05,-1.15 0.59,-0.52 1.04,-1.1 1.36,-1.72 0.32,-0.63 0.48,-1.16 0.48,-1.59 0,-0.5 -0.18,-0.75 -0.55,-0.75 -0.27,0 -0.64,0.18 -1.12,0.54 -0.48,0.37 -1.07,0.98 -1.78,1.85 -0.43,0.54 -0.84,1.14 -1.23,1.77 -0.39,0.64 -0.66,1.11 -0.82,1.4z"/>
  <path id="10" class="fil0" d="M136.87 29.14c-1.12,0 -1.91,-0.29 -2.38,-0.88 -0.46,-0.58 -0.7,-1.18 -0.7,-1.82 0,-0.53 0.13,-1 0.4,-1.44 0.26,-0.43 0.57,-0.66 0.94,-0.68 0.45,-0.89 0.95,-1.86 1.48,-2.9 0.54,-1.05 1.03,-2.06 1.49,-3.04 0.32,-0.66 0.72,-1.3 1.21,-1.92 0.49,-0.61 1.03,-0.96 1.62,-1.05l0.34 0c0.19,0 0.35,0.01 0.5,0.03 0.15,0.02 0.3,0.07 0.46,0.14 0.25,0.11 0.38,0.28 0.38,0.51 0,0.13 -0.08,0.2 -0.24,0.2 -0.07,0 -0.16,-0.03 -0.28,-0.1 -0.27,-0.11 -0.51,-0.17 -0.71,-0.17 -0.14,0 -0.27,0.03 -0.38,0.1 -0.43,0.23 -0.73,0.55 -0.9,0.96 -0.18,0.41 -0.26,0.84 -0.26,1.3 0,0.36 0.04,0.73 0.12,1.11 0.08,0.37 0.18,0.71 0.29,1 0.25,0.64 0.52,1.27 0.8,1.88 0.29,0.62 0.43,1.28 0.43,1.98 0,0.69 -0.23,1.41 -0.68,2.17 -0.46,0.77 -1.04,1.38 -1.75,1.83l0.24 0.03c0.12,0.03 0.2,0.04 0.24,0.04 0.05,0 0.08,0 0.1,0 0.53,0 1.02,-0.16 1.49,-0.46 0.47,-0.31 0.88,-0.69 1.25,-1.15 0.36,-0.45 0.78,-1.09 1.24,-1.91 0.47,-0.82 0.92,-1.68 1.35,-2.6 0.07,-0.11 0.15,-0.17 0.24,-0.17 0.12,0 0.2,0.04 0.26,0.12 0.06,0.08 0.06,0.18 0.02,0.29 -0.3,0.64 -0.64,1.33 -1.01,2.07 -0.38,0.74 -0.81,1.45 -1.28,2.12 -0.48,0.67 -1.03,1.22 -1.66,1.64 -0.63,0.42 -1.33,0.63 -2.1,0.63 -0.18,0 -0.38,-0.01 -0.58,-0.03 -0.21,-0.03 -0.41,-0.07 -0.62,-0.14 -0.22,0.09 -0.46,0.16 -0.7,0.22 -0.24,0.06 -0.46,0.09 -0.66,0.09zm1.02 -1.03c0.39,-0.32 0.74,-0.78 1.04,-1.4 0.31,-0.61 0.47,-1.42 0.47,-2.42 0,-0.89 -0.1,-1.84 -0.28,-2.84 -0.18,-1 -0.27,-1.89 -0.27,-2.66 0,-0.16 0,-0.31 0.02,-0.43 0.01,-0.13 0.02,-0.25 0.05,-0.36 -0.3,0.62 -0.64,1.33 -1.03,2.14 -0.38,0.8 -0.77,1.58 -1.16,2.34 -0.39,0.75 -0.72,1.38 -0.99,1.91 0,0 0.06,0 0.19,0.02 0.12,0.01 0.24,0.09 0.36,0.23 0.11,0.15 0.16,0.44 0.13,0.88 -0.02,0.56 0.11,1.09 0.4,1.58 0.28,0.49 0.64,0.83 1.07,1.01zm-1.3 0.48c0.14,0 0.27,-0.02 0.38,-0.05 0.11,-0.04 0.22,-0.06 0.31,-0.09 -0.34,-0.25 -0.65,-0.58 -0.91,-1 -0.26,-0.43 -0.41,-0.97 -0.46,-1.63 -0.41,0.44 -0.61,0.9 -0.61,1.4 0,0.37 0.11,0.69 0.34,0.96 0.23,0.27 0.54,0.41 0.95,0.41z"/>
  <path class="fil0" d="M65.93 42.28c0,0.84 -0.35,1.54 -1.06,2.09 -0.66,0.53 -1.45,0.79 -2.36,0.79 -0.84,0 -1.54,-0.2 -2.11,-0.6 -0.64,-0.45 -0.96,-1.06 -0.96,-1.83 0,-0.54 0.22,-1 0.66,-1.39 0.44,-0.38 0.97,-0.57 1.59,-0.57 0.61,0 1.09,0.11 1.47,0.34 0.42,0.26 0.63,0.63 0.63,1.1 0,0.35 -0.14,0.64 -0.43,0.87 -0.28,0.23 -0.6,0.34 -0.97,0.34 -0.34,0 -0.63,-0.06 -0.86,-0.19 -0.28,-0.15 -0.41,-0.36 -0.41,-0.64 0,-0.16 0.07,-0.3 0.21,-0.42 0.11,-0.08 0.2,-0.13 0.29,-0.14 0.08,-0.02 0.13,-0.02 0.14,-0.02 0.03,0 0.04,0.01 0.04,0.04 0,0.02 -0.01,0.04 -0.02,0.07 -0.01,0 -0.01,0.03 -0.02,0.07 -0.03,0.08 -0.04,0.17 -0.04,0.26 0,0.12 0.06,0.23 0.19,0.32 0.13,0.09 0.26,0.14 0.41,0.14 0.25,0 0.45,-0.08 0.62,-0.23 0.16,-0.15 0.24,-0.34 0.24,-0.57 0,-0.34 -0.16,-0.6 -0.49,-0.79 -0.29,-0.16 -0.64,-0.25 -1.04,-0.25 -0.52,0 -0.97,0.15 -1.34,0.46 -0.4,0.32 -0.6,0.72 -0.6,1.2 0,0.62 0.3,1.12 0.9,1.5 0.53,0.33 1.17,0.5 1.9,0.5 0.75,0 1.39,-0.23 1.93,-0.7 0.56,-0.47 0.84,-1.07 0.84,-1.78 0,-0.39 -0.1,-0.73 -0.28,-1.02 -0.16,-0.25 -0.4,-0.5 -0.74,-0.74 -0.22,-0.16 -0.57,-0.36 -1.03,-0.6 -0.6,-0.28 -1.19,-0.56 -1.77,-0.85 -0.6,-0.34 -0.9,-0.75 -0.9,-1.23 0,-0.47 0.24,-0.83 0.72,-1.09 0.41,-0.22 0.91,-0.34 1.5,-0.34 0.46,0 0.81,0.05 1.08,0.15 0.36,0.14 0.54,0.37 0.54,0.68 0,0.13 -0.05,0.25 -0.15,0.35 -0.1,0.1 -0.19,0.16 -0.27,0.17 -0.08,0 -0.14,0.01 -0.18,0.01 -0.08,0 -0.16,-0.02 -0.22,-0.04 -0.04,-0.04 -0.07,-0.06 -0.07,-0.07 0,-0.01 0.02,-0.04 0.05,-0.07 0.05,-0.05 0.09,-0.11 0.12,-0.17 0.02,-0.06 0.03,-0.13 0.03,-0.2 0,-0.19 -0.1,-0.34 -0.32,-0.44 -0.17,-0.08 -0.39,-0.12 -0.64,-0.12 -0.42,0 -0.77,0.07 -1.05,0.2 -0.34,0.16 -0.51,0.39 -0.51,0.69 0,0.22 0.12,0.42 0.37,0.6 0.17,0.13 0.47,0.28 0.9,0.47 0.63,0.28 1,0.44 1.11,0.5 0.53,0.26 0.94,0.49 1.22,0.71 0.38,0.29 0.65,0.61 0.83,0.98 0.21,0.41 0.31,0.91 0.31,1.5z"/>
  <path id="1" class="fil0" d="M69.3 39.51c0,0.07 -0.02,0.1 -0.08,0.1 -0.02,0 -0.12,-0.01 -0.29,-0.01 -0.18,-0.01 -0.34,-0.02 -0.5,-0.02l0 3.99c0,0.29 0.08,0.53 0.24,0.73 0.05,0.06 0.16,0.16 0.35,0.32 0.03,0.02 0.05,0.05 0.05,0.08 0,0.02 -0.02,0.05 -0.05,0.07 -0.03,0.02 -0.07,0.04 -0.11,0.07 -0.05,0.04 -0.09,0.07 -0.11,0.09 -0.12,0.1 -0.19,0.17 -0.22,0.22 -0.03,0.03 -0.07,0.05 -0.1,0.05 -0.03,0 -0.05,-0.01 -0.08,-0.03 -0.17,-0.09 -0.33,-0.26 -0.46,-0.49 -0.18,-0.33 -0.27,-0.72 -0.27,-1.17l0 -3.93c-0.13,0 -0.25,0.01 -0.37,0.01 -0.11,0.01 -0.23,0.01 -0.35,0.02 -0.05,0 -0.08,-0.03 -0.08,-0.1l0 -0.19c0,-0.06 0.03,-0.09 0.1,-0.09 0.02,0 0.11,0 0.27,0.01 0.15,0.01 0.3,0.01 0.43,0.01l0 -0.46c0,-0.23 -0.05,-0.36 -0.15,-0.39 -0.07,-0.01 -0.12,-0.01 -0.14,-0.02 -0.05,0 -0.08,-0.02 -0.08,-0.08 0,-0.02 0.01,-0.05 0.03,-0.07 0.09,-0.08 0.18,-0.16 0.27,-0.24 0.09,-0.09 0.2,-0.19 0.31,-0.3 0.12,-0.13 0.22,-0.24 0.29,-0.33 0.07,-0.09 0.14,-0.17 0.21,-0.26 0.01,-0.02 0.03,-0.03 0.05,-0.03 0.03,0 0.04,0.03 0.04,0.09 -0.01,0.11 -0.02,0.21 -0.03,0.31 -0.03,0.26 -0.04,0.52 -0.04,0.78l0 1c0.13,0 0.26,0 0.39,0 0.13,-0.01 0.26,-0.02 0.4,-0.02 0.06,0 0.08,0.03 0.08,0.08l0 0.2z"/>
  <path id="2" class="fil0" d="M76.53 42.14c0,0.84 -0.31,1.55 -0.93,2.15 -0.6,0.58 -1.31,0.87 -2.12,0.87 -0.87,0 -1.59,-0.3 -2.18,-0.9 -0.59,-0.59 -0.89,-1.32 -0.89,-2.18 0,-0.84 0.3,-1.55 0.91,-2.15 0.6,-0.59 1.32,-0.89 2.17,-0.89 0.85,0 1.57,0.3 2.16,0.91 0.58,0.6 0.88,1.33 0.88,2.19zm-0.52 0.26c0,-0.66 -0.3,-1.29 -0.91,-1.88 -0.63,-0.62 -1.32,-0.92 -2.07,-0.92 -0.58,0 -1.08,0.19 -1.49,0.6 -0.41,0.4 -0.61,0.87 -0.61,1.41 0,0.79 0.31,1.49 0.93,2.1 0.61,0.6 1.28,0.9 2.01,0.9 0.58,0 1.08,-0.19 1.48,-0.57 0.44,-0.41 0.66,-0.96 0.66,-1.64z"/>
  <path id="3" class="fil0" d="M81.86 39.91c0,0.24 -0.06,0.42 -0.19,0.57 -0.12,0.14 -0.29,0.21 -0.49,0.21 -0.15,0 -0.28,-0.02 -0.39,-0.06 -0.1,-0.04 -0.17,-0.09 -0.2,-0.16 -0.02,-0.02 -0.02,-0.04 -0.01,-0.06 0.01,-0.02 0.03,-0.03 0.05,-0.03 0.08,0 0.14,-0.01 0.2,-0.03 0.06,-0.02 0.12,-0.05 0.17,-0.1 0.06,-0.08 0.1,-0.17 0.1,-0.28 0,-0.14 -0.05,-0.24 -0.16,-0.32 -0.12,-0.1 -0.29,-0.14 -0.51,-0.14 -0.28,0 -0.56,0.13 -0.84,0.38 -0.24,0.22 -0.43,0.49 -0.56,0.81l0 3.68c0,0.08 0.04,0.15 0.14,0.23 0.07,0.06 0.15,0.12 0.23,0.18 0.04,0.04 0.06,0.08 0.06,0.11 0,0.05 -0.04,0.07 -0.13,0.07 -0.07,0 -0.14,0 -0.19,0 -0.25,-0.02 -0.41,-0.03 -0.49,-0.03 -0.16,0 -0.28,0 -0.37,0.01 -0.09,0.01 -0.19,0.02 -0.31,0.02 -0.09,0 -0.13,-0.02 -0.13,-0.06 0,-0.04 0.02,-0.08 0.07,-0.13 0.07,-0.06 0.13,-0.11 0.17,-0.14 0.12,-0.1 0.19,-0.19 0.19,-0.26l0 -3.56c0,-0.27 -0.08,-0.5 -0.23,-0.68 -0.1,-0.12 -0.31,-0.25 -0.65,-0.39 -0.01,-0.01 -0.02,-0.02 -0.02,-0.04 0,-0.02 0.01,-0.04 0.02,-0.06l0.28 -0.27c0.05,-0.05 0.1,-0.1 0.14,-0.15 0.01,-0.01 0.04,-0.04 0.08,-0.1 0.02,-0.02 0.05,-0.04 0.08,-0.04 0.01,0 0.03,0.01 0.05,0.02 0.22,0.16 0.39,0.29 0.5,0.41 0.24,0.24 0.38,0.49 0.41,0.75 0.15,-0.33 0.37,-0.61 0.66,-0.84 0.34,-0.26 0.72,-0.39 1.13,-0.39 0.36,0 0.64,0.09 0.84,0.26 0.2,0.16 0.3,0.37 0.3,0.61z"/>
  <path id="4" class="fil0" d="M87.89 43.7c-0.1,0.34 -0.35,0.66 -0.75,0.96 -0.46,0.35 -0.97,0.52 -1.52,0.52 -0.35,0 -0.67,-0.03 -0.94,-0.11 -0.31,-0.09 -0.61,-0.24 -0.89,-0.45 -0.11,0.14 -0.21,0.29 -0.31,0.46 -0.12,0.2 -0.17,0.35 -0.17,0.44 0,0.11 0.03,0.19 0.09,0.24 0.03,0.03 0.1,0.04 0.19,0.04 0.03,0 0.06,-0.01 0.09,-0.01 0.02,-0.01 0.05,-0.02 0.07,-0.03 0.02,-0.01 0.03,-0.01 0.04,0 0.03,0.02 0.04,0.05 0.02,0.1 -0.03,0.1 -0.07,0.18 -0.14,0.26 -0.1,0.11 -0.21,0.16 -0.34,0.16 -0.14,0 -0.25,-0.05 -0.34,-0.15 -0.09,-0.1 -0.13,-0.23 -0.13,-0.39 0,-0.13 0.05,-0.29 0.14,-0.47 0.02,-0.05 0.19,-0.34 0.52,-0.86 -0.3,-0.3 -0.53,-0.63 -0.69,-0.99 -0.18,-0.4 -0.26,-0.82 -0.26,-1.28 0,-0.84 0.27,-1.57 0.82,-2.18 0.54,-0.61 1.23,-0.92 2.04,-0.92 0.32,0 0.66,0.08 1,0.24 0.19,0.09 0.37,0.18 0.56,0.27 0.04,0.01 0.09,0.03 0.16,0.03 0.07,0.01 0.14,0.02 0.2,0.02l0.19 -0.02c0.04,0 0.06,0.02 0.06,0.06 0,0.03 -0.01,0.05 -0.04,0.06 -0.07,0.04 -0.14,0.1 -0.21,0.16 -0.11,0.09 -0.2,0.18 -0.27,0.28 -0.39,0.43 -0.84,0.99 -1.36,1.7 -0.51,0.7 -0.99,1.4 -1.44,2.11 0.23,0.16 0.47,0.29 0.72,0.38 0.28,0.11 0.58,0.17 0.9,0.17 0.43,0 0.79,-0.09 1.06,-0.25 0.21,-0.12 0.44,-0.34 0.69,-0.65 0.02,-0.03 0.05,-0.07 0.08,-0.11 0.04,-0.05 0.07,-0.06 0.11,-0.05 0.05,0.01 0.08,0.05 0.08,0.11 0,0.05 -0.01,0.1 -0.03,0.15zm-1.64 -3.54c0,-0.24 -0.13,-0.42 -0.39,-0.56 -0.21,-0.11 -0.47,-0.16 -0.78,-0.16 -0.57,0 -1.04,0.24 -1.41,0.72 -0.34,0.46 -0.51,1 -0.51,1.63 0,0.38 0.09,0.75 0.27,1.12 0.15,0.32 0.34,0.59 0.57,0.81 0.27,-0.41 0.48,-0.72 0.64,-0.95 0.24,-0.36 0.45,-0.66 0.62,-0.91 0.22,-0.31 0.44,-0.62 0.66,-0.93 0.22,-0.34 0.33,-0.6 0.33,-0.77z"/>
  <g id="_2435125410736">
   <path class="fil1" d="M85.85 63.07c1.03,-0.12 2.37,-2.32 4.67,-2.96 2.9,-0.8 4.02,-0.99 6.39,0.26 0.31,0.17 3.08,1.05 3.45,1.61 -1.32,0.08 -4.03,1.83 -7.45,2.71 -3.09,0.8 -4.35,-0.63 -8.48,-0.7 1.11,-0.18 2.15,-0.79 3.29,-1.05 1.87,-0.42 5.75,-1.13 7.57,-1.18 1.53,-0.04 2.77,0.19 4.37,0.21 -0.39,-0.47 -0.04,-0.21 -0.62,-0.44l-3.13 -0.26c-1.25,-0.07 -9.34,0.87 -10.06,1.8zm-17.65 -1.95c1.92,-2.73 8.27,-5.41 9.93,-5.18 -0.66,1.69 -0.46,0.96 -1.36,2.26 -1.41,2.02 -3.21,4.94 -5.78,5.6 -0.67,0.18 -3.41,0.73 -4.11,0.67 0.14,-0.19 0.47,-0.34 0.76,-0.55 2.12,-1.59 5.32,-2.79 6.22,-4.74 -0.59,0.17 -0.49,0.02 -1.13,0.74 -1.02,1.15 -3.42,2.21 -4.69,3.11 -0.56,0.4 -1.12,1 -1.97,1.26l2.13 -3.17zm-35.35 -13.56c-0.48,-0.2 -0.61,-0.5 -1.23,-0.8l-3.61 -1.88c-0.41,-0.18 -0.81,-0.27 -1.26,-0.32 0.11,0.79 0.06,0.62 0.49,1.08 1.81,1.9 5.75,2.02 6.99,3.37 0.93,1.01 4.02,4.49 5.07,4.91 0.32,0.13 -0.11,0.15 0.18,0.02 -1.3,0.54 -8.95,-1.5 -10.58,-0.27 0.24,0.5 0.67,0.69 1.34,0.85 0.58,0.15 1.19,0.23 1.73,0.29 1.37,0.14 2.95,0.17 4.33,0.14 -0.27,-0.25 -0.02,-0.11 -0.42,-0.27 -0.19,-0.08 -0.22,-0.08 -0.42,-0.11 -1.28,-0.2 -5.3,0.19 -5.91,-0.9 0.33,-0.15 7.89,0.54 8.71,0.73 -0.18,0.56 -1.88,0.96 -2.72,1.17 -1.01,0.25 -2.57,0.2 -3.4,0.95 0.48,0.36 0.78,0.03 1.47,-0.14 0.53,-0.14 1,-0.18 1.56,-0.33 0.8,-0.2 2.31,-0.66 3.05,-0.72 -0.47,0.48 -1.41,0.76 -2.35,1.07 -0.94,0.3 -2.16,0.11 -3.03,0.54 1.95,0.14 2.43,0.2 4.22,-0.55 1.44,-0.6 1.49,-1.37 3.2,-1.76l1.17 0.83c0.3,0.18 0.43,0.28 0.66,0.44 2.33,1.6 3.21,2.24 5.9,3.67 0.52,0.28 1.02,0.53 1.44,0.78 0.28,0.16 1.16,0.53 1.39,0.8 -2.21,-0.05 -9.79,-0.1 -11.51,0.62 0.17,0.46 0.29,0.58 0.86,0.84 2.18,0.99 5.09,0.65 7.37,0.05 0.86,-0.22 2.01,-0.79 2.72,-0.83 -0.03,0.03 -0.08,0.03 -0.1,0.09 -0.2,0.71 -4.95,2.99 -5.52,3.46 -0.51,0.43 -0.94,0.57 -1.29,1.07 -0.31,0.43 -0.14,-0.22 -0.24,0.52 1.03,0.88 3.01,-0.27 4.02,-0.75 0.65,-0.32 0.56,-0.36 1.09,-0.8 2.07,-1.71 2.34,-2.93 3.07,-3.54 0.16,-0.13 0.23,-0.2 0.47,-0.29 0.69,0.55 4.7,2.25 4.37,1.93 -0.25,0.36 -2.77,0.62 -3.45,0.88l-2.18 1.12c-0.45,0.33 -0.35,-0.19 -0.35,0.71l1.19 0.05c1.01,-0.26 2.11,-0.41 3.08,-0.85l1.09 -0.61c0.77,-0.47 1.24,-0.98 2.28,-0.71 2.99,0.8 5.62,1.42 8.54,2.03 1.45,0.31 3.11,0.32 4.48,0.7 1.06,0.3 2.77,1.12 3.81,1.55 2.79,1.14 2.73,1.6 4.39,3.39 0.59,0.63 0.72,1.14 1.58,1.4 -0.21,-0.81 -0.12,-0.65 -0.57,-1.14 -0.57,-0.61 -1.72,-1.84 -2.06,-2.47 0.62,0.4 0.89,0.43 1.57,0.82 0.78,0.43 1.54,1.13 2.23,1.68 0.37,0.29 0.29,0.33 0.61,0.62 1.46,1.37 3.18,1.97 5.14,2.76l1.99 0.7c0.37,0.09 0.65,0.15 1.04,0.25 0.01,0.01 0.52,0.13 0.53,0.13 0.77,-0.07 0.28,0.16 0.76,-0.4 -1.85,-0.16 -6.09,-1.75 -7.65,-2.76 -1.59,-1.03 -2.71,-2.45 -4.36,-3.33 -0.57,-0.31 -1.44,-0.45 -1.72,-0.97 3.68,0.92 4.81,0.05 8.78,2.32 0.27,0.16 0.48,0.28 0.8,0.48 0.25,0.16 0.56,0.32 0.86,0.54 0.52,0.37 0.95,0.92 1.4,1.39l2.67 2.65c-0.89,0.45 -5.29,0.43 -6.39,0.18 -2.48,-0.57 -2.8,-0.82 -4.17,-2.06 -0.59,-0.52 -0.05,-0.2 -0.84,-0.44 0.25,1.03 0.63,1.12 1.34,1.66 0.97,0.74 2.44,0.99 3.51,1.23 1.56,0.34 5.68,0.21 7.48,0.22 -0.18,-1.45 -1.01,-1.55 -1.83,-2.39 -1.03,-1.07 -1.76,-2.29 -3.05,-3.09 -2.29,-1.42 -4.66,-2.71 -7.42,-2.73l-3.83 -0.42c-1.3,-0.2 -4.95,-1.4 -6.05,-2.03 0.18,0.07 4.44,-0.12 5.08,-0.18l6.35 -1.7c1.72,-0.63 5.41,0.36 7.3,0.65 2.77,0.44 6.17,-1.24 8.51,-2.36 1.71,-0.81 4.79,-0.67 -0.75,-3.02 -0.38,-0.16 -0.56,-0.27 -0.94,-0.45l-0.82 -0.28c0.22,-0.31 5.39,-2.58 5.55,-2.6 0.35,1.36 1.39,2.19 2.76,1.78 1.21,-2.62 -1.78,-1.63 -2.28,-2.69 -0.17,-0.35 0.32,-1.43 0.41,-2.01 0.19,-1.25 0.01,-1.56 -0.4,-2.37l-0.94 -0.01c-1.24,2.04 -0.56,2.68 0.24,4.54 -1.04,0.94 -3.86,1.92 -5.3,2.76 -0.03,0.02 -0.06,0.05 -0.09,0.07 -0.66,0.36 -1.69,-0.08 -3.87,0.42 -1.09,0.25 -2.54,0.53 -3.39,1.03 -1.42,0.83 -2.49,1.98 -3.86,2.85l-1.1 0.59c-1.21,0.46 -1.59,1.26 -2.95,1.22 -1.57,-0.04 -1.33,0.27 -1.62,0.25 -0.39,-0.03 -0.02,-0.22 -0.48,-0.31 -0.39,-0.09 -0.39,0.21 -0.56,0.55 -3.33,0.25 -6.82,1.22 -10.22,0.63 -0.91,-0.16 -2.5,-0.56 -3.22,-0.56 0.75,-0.23 1.15,-0.56 2.18,-0.5 1.96,0.13 5.77,-0.95 6.92,-2.06 0.93,-0.9 4.82,-5.83 4.81,-6.87 -0.01,-0.44 -0.02,-0.31 -0.09,-0.48 -1.32,-0.36 -3.72,0.75 -4.91,1.27 -3.38,1.49 -4.9,2.3 -7.06,5.66 -0.92,1.43 -1.35,3.19 -3.48,2.56 -1.66,-0.5 -3.16,-1.03 -4.83,-1.48 -0.98,-0.27 -1.25,-0.67 -1.82,-1.25l-1.57 -1.71c-1.28,-1.73 -1.4,-0.98 0.11,-4 0.27,-0.55 0.62,-1.71 1.05,-2.06 1.12,-0.9 1.09,-0.14 1.11,-2.51 -0.45,-0.12 -0.5,-0.23 -0.93,-0.53l-0.24 0.34c-0.22,0.36 -0.69,0.71 -0.81,1.1 -0.16,1.48 0.49,0.91 -0.06,2.09 -0.24,0.54 -0.5,1.59 -0.98,1.84 0.41,0.5 -0.43,-0.4 -0.48,-0.84 -0.03,-0.36 0.2,-1.05 0.15,-1.85 -0.17,-0.14 -0.3,-0.31 -0.45,-0.43 -0.38,-0.31 -0.22,-0.37 -0.91,-0.26 -0.7,2.1 0.07,1.8 0.83,3.09 0.33,0.54 0.08,0.5 0.58,0.73 0.07,0.85 -0.29,0.72 -0.37,1.56 -1.02,-1.72 -2.42,-3.23 -1.92,-5.47 0.41,-1.79 0.08,-1.52 1.33,-2.55 0.4,-0.33 0.67,-0.63 0.81,-1.27 0.29,-1.3 -0.37,-2.4 -1.5,-1.37 -0.03,0.02 -0.06,0.06 -0.08,0.08 -1.47,1.46 -0.11,1.97 -0.72,3.92 -0.13,0.4 -0.3,1.53 -0.37,1.67 -0.37,-0.9 -0.98,-2.1 -0.74,-3.22 0.54,-2.51 -0.14,-1.93 -0.52,-3.45 -0.01,-0.04 -0.03,-0.1 -0.04,-0.13 0,-0.04 -0.01,-0.1 -0.03,-0.14 -0.61,0.05 -0.41,0.17 -0.63,-0.14 -0.52,0.39 -0.33,0.04 -0.47,0.59 -0.37,-0.45 -0.15,-0.34 -0.94,-0.43 0.15,1.31 0.21,0.59 0.59,1.09 0.34,0.46 0.06,0.66 0.13,1.38 0.08,0.96 0.77,1.31 1.17,1.81 0.25,0.31 0.54,1.69 0.74,2.21 0.68,1.83 1.33,2.69 0.4,1.97l-0.18 -0.15c-2.26,-1.9 -0.88,-2.42 -2.36,-3.14 -1.14,-0.55 -0.21,-0.05 -0.75,-0.07 -0.32,-0.01 -0.25,-0.16 -0.73,-0.46l-0.14 0.29c-0.23,0.44 -0.59,0.56 -0.72,0.95 0.85,0.46 0.51,-0.5 0.98,0.6 0.54,1.26 1.08,0.87 2.21,0.9 0.53,0.98 1.53,1.4 2.28,2.18 0.49,0.51 1.39,2.49 1.73,2.66 -5.41,-1.66 -1.38,-1.46 -4.51,-2.35l-0.56 -0.03c-1.11,0.34 -0.03,1.9 0.38,2.12 1.44,0.14 1.38,-0.27 2.79,0.15 2.21,0.67 2.3,0.7 3.72,2.5 0.21,0.27 1.18,1.31 1.42,1.41l-0.51 -0.31c-0.26,-0.09 -0.57,-0.17 -0.88,-0.27 -0.52,-0.17 -1.12,-0.35 -1.68,-0.65l-6.07 -3.21c-2.77,-1.38 -3.53,-1.61 -3.76,-5.27 -0.2,-3.12 0.49,-5.19 -0.95,-8.17 -0.26,-0.53 -0.57,-1.07 -0.82,-1.51l-0.67 -1.06c-0.26,-0.31 0.01,-0.11 -0.4,-0.36 -0.25,0.39 -0.21,0.94 -0.1,1.44 0.64,3.1 2.89,5.95 2.38,9.23 -0.45,-0.67 -0.91,-3.19 -1.32,-4.18l-0.46 -0.97c-0.33,-0.42 0.19,-0.07 -0.4,-0.35 -0.97,1.27 0.36,3.75 1.06,4.81 0.25,0.36 0.28,0.41 0.53,0.85 1,1.79 0.87,2.5 1.29,3.26 -0.32,0.05 -3.53,-2.46 -3.81,-2.65 -0.54,-0.35 -0.5,-0.42 -0.96,-0.74l-1.81 -1.64c-3.33,-3.35 -2.8,-1.68 -3.01,-8.62 -0.02,-0.72 -0.09,-1.43 -0.36,-2.13 -0.26,-0.67 0.13,-0.3 -0.51,-0.59 -0.12,0.2 -0.05,-0.06 -0.16,0.44l-0.19 3.56c0.14,1.69 0.35,2.14 0.77,3.65 -0.8,-0.58 -0.87,-1.28 -1.51,-2.12 -0.54,-0.7 -0.9,-1.29 -1.38,-2.2 -0.56,-1.06 -1.34,-1.96 -2.11,-2.9 -0.39,-0.48 -0.81,-0.93 -1.43,-1.06 0.08,1.2 0.53,1.7 1.06,2.48 0.25,0.37 0.48,0.65 0.74,0.98l1.71 1.9c0.67,0.62 1.64,2.21 2.28,3.02z"/>
   <path class="fil2" d="M118.52 41.52c-0.08,-0.6 -0.44,-2.22 1.1,-2.62 -0.37,0.6 -0.7,1.33 -0.78,2.15 0.34,-0.18 0.56,-0.07 0.93,-1.15 0.2,-0.56 0.27,-0.9 0.03,-1.41 -0.72,-0.16 -0.64,-0.19 -1.14,0.15 -1.33,0.92 -0.52,3.13 -0.57,3.34 -0.35,0.5 -0.76,0.81 -1.03,1.32 0.18,-0.57 0.42,-1.23 0.49,-1.63 0.49,-3.04 -3.23,-1.76 -1.64,2.04 0.15,0.34 0.05,0.22 0.23,0.44 -0.05,0.49 -0.41,0.63 -0.75,0.98 -0.75,0.75 -0.2,0.4 -1.29,0.66 -0.46,0.11 -2.08,1.08 -2.22,1.45 0.22,-0.18 0.27,-0.39 0.32,-0.76 0.24,-2.12 -2.28,-1.99 -2.21,0.74 0.06,2.37 0.85,1.26 0.61,2.97 1.22,-0.3 0.81,0.76 2.95,0.44 1.71,-0.25 1.99,-0.63 1.86,-2.04 -1.82,-0.23 -1.73,0.24 -2.45,0.38 0.2,0.11 0,0.11 0.37,-0.04 2.08,-0.85 1.49,-2.06 1.84,-2.65 0.1,-0.16 0.7,-0.7 0.91,-0.93 0.9,-0.92 2.57,-0.02 4.09,-1.19 0.94,-0.72 0.55,-1.1 0.37,-1.32 -0.35,-0.32 0.65,0.05 -0.33,-0.16 -0.72,-0.15 -2.13,0.27 -2.5,0.71 0.82,-0.3 0.09,-1.1 2.21,-1.43 1.7,-0.27 2.13,-0.77 2.99,-1.33 0.02,-1.73 -0.4,-1.66 -1.53,-0.97l-1.27 0.78c-0.44,0.38 -0.23,0.16 -0.17,0.31 0.49,-0.18 0.4,-0.84 2.04,-1.83 0.48,-0.29 0.77,-0.53 1.16,-0.91 0.62,-0.59 0.73,-0.61 0.76,-1.75 -1.1,0.59 -0.25,0.63 -2.07,1.99 -0.13,0.1 -0.2,0.14 -0.33,0.27 -0.3,0.31 -0.14,0.06 -0.13,0.21 0.44,-0.36 0.68,-1.5 1.49,-2.08 0.53,-0.37 0.55,-0.34 0.73,-1.02 -0.92,0.12 -0.49,0.01 -1.1,0.45 -0.93,0.68 -1.08,1.39 -1.75,2.52l-1.79 2.43c-0.03,0.02 -0.06,0.05 -0.09,0.08l-0.34 0.41z"/>
   <path class="fil3" d="M93.32 49.14c-0.03,-0.04 -0.72,0.01 -0.07,-1.51 0.23,-0.54 0.39,-0.61 0.79,-0.91 2.45,0.93 0.79,2.51 -0.1,2.74 0.01,-0.14 0.1,-0.84 0.1,-0.87 -0.01,-0.53 0.02,-0.31 -0.17,-0.6 -0.4,0.42 -0.35,0.65 -0.55,1.15zm8.02 -10.67c0.73,-0.61 -0.3,-0.81 2.36,-0.41 0.73,1.64 0.34,1.97 -0.97,2.51 0.09,-0.54 0.31,-1.11 0.16,-1.54 -1.09,0.28 0.08,1.27 -1.07,2.09 0.22,-0.56 0.12,0.01 0.23,-0.51l-0.11 -0.77c-0.26,0.19 -0.49,0.21 -0.42,1.11 -0.21,-0.37 -0.31,-0.98 -0.21,-1.3 0.09,-0.31 0.71,-0.47 -0.1,-0.94 -0.75,1.18 0.38,2.67 0.15,3.8l-2.56 6.87c-0.21,0.39 -0.65,1.02 -0.96,1.4l-0.48 0.6c-0.36,0.49 -0.11,0.31 -0.76,0.64 0.15,-1.29 1.1,-5.41 -0.05,-6.04 -0.73,0.66 0.3,0.84 0.14,3.28 -0.06,1.07 -0.2,2.87 -0.7,3.58 -0.24,0.33 -0.65,0.8 -0.95,1.09l-3.26 2.92c0.33,-1.65 1.25,-4.03 1.35,-5.76 0.03,-0.03 0.08,-0.11 0.1,-0.08 0.01,0.02 0.07,-0.07 0.09,-0.09l0.19 -0.14c0.21,-0.14 0.19,-0.12 0.4,-0.24 1.2,-0.68 0.91,-0.94 1.82,-2.39 -0.66,-1.52 -2.22,-2.49 -2.75,-1.06 -0.13,0.39 -0.01,0.77 -0.37,1.19 -0.55,-0.84 -0.83,-1.22 0.27,-1.49 -0.22,-0.15 -0.03,-0.11 -0.4,-0.18 -0.21,-0.04 -0.33,-0.01 -0.52,0.02l0.08 1.79c0.46,0.4 -0.52,-0.35 0.3,0.15 0.44,0.28 0.39,0.07 0.4,0.5 0.03,0.99 0.09,0.14 -0.18,0.5 -0.2,-0.57 0.01,-0.48 -0.39,-0.83 0.24,1.37 1,1.36 0.48,3.08 -0.35,1.17 -0.35,2.29 -0.76,3.47 -0.82,2.37 0.11,1.57 -1.96,3.21l-1.97 1.31c0.3,-0.77 1.51,-2.19 1.54,-2.69l-0.06 -0.38c-0.01,-0.04 -0.03,-0.09 -0.05,-0.14 -0.51,0.39 -1.42,3.29 -2.27,3.94 -0.34,0.26 -0.99,0.5 -1.31,0.7 -0.44,0.28 -0.73,0.56 -1.18,0.86 -0.4,0.26 -0.88,0.57 -1.23,0.8 -0.84,0.56 -1.65,1.14 -2.37,1.65 1.52,-0.33 5.24,-2.88 6.7,-4.01 0.85,-0.67 1.78,-1.07 2.7,-1.83 1.52,-1.25 0.26,0.12 1.45,-1.37 0.3,-0.37 0.67,-0.53 1.03,-0.86 0.38,-0.34 0.51,-0.61 0.9,-0.96 0.93,-0.86 0.85,-0.89 2.48,-1.14 2.89,-0.44 1.03,-0.05 2.69,-1.07 0.01,0.03 0.01,0.05 0.02,0.09l0.13 0.41c0.41,-0.37 0.14,0 0.41,-0.45l-0.56 -0.32c-0.62,0.24 -0.82,0.61 -1.49,0.85 -0.55,0.18 -1.59,0.28 -2.19,0.41 0.42,-0.97 1.35,-1.12 2.62,-2.98 2.91,-4.27 0.51,-0.88 4.16,-3.97 0.4,-0.33 1.19,-1.04 1.68,-1.09 1.3,-0.14 4.09,0.18 4.42,-1.1 -1.29,-0.87 -0.5,0.65 -4.32,0.86 0.68,-0.73 1.03,-0.88 1.59,-1.78l-0.86 0.62c-0.36,0.31 -0.34,0.28 -0.72,0.52 -1.31,0.84 -3.36,3 -4.29,3.32 0.24,-1.16 0.93,-2.26 1.25,-3.44 1.19,-4.39 1.11,-2.74 2.62,-4.11 0.87,-0.78 2.29,-3.62 -1.84,-3.61l-0.27 0.93z"/>
   <path class="fil4" d="M104.8 50.76c0.02,-0.05 0.47,-0.48 -0.59,-0.59 -0.14,-0.01 -0.78,-0.17 -0.95,0.72 -0.35,1.81 1.05,2.93 1.05,2.93 0.22,0.35 0,0.26 0.2,0.63l1.66 2.27c0.33,0.23 0.77,0.38 1.39,0.34 0.94,-0.06 0.62,-0.22 1.24,-0.62 -0.02,-0.54 -0.22,-1.7 -0.61,-1.26 3.05,0.03 2.59,-1.18 2.59,-1.21 -0.05,-1.04 -1.66,-1.12 -2.19,-1.05 -0.67,0.1 -0.26,0.19 0.11,-0.2 0.47,-0.48 0.22,-0.47 0.49,-1.01 0.35,-0.67 0.95,-0.69 1.3,-1.18 0.36,-0.5 -0.21,0.79 0.26,-0.49 -0.69,0.03 -1.24,0.16 -1.57,0.77 -0.78,-0.09 0.29,-0.31 -2.03,-0.34 0,-0.68 0.05,-0.72 -0.15,-1.25 -1.51,-0.71 -2.19,0.13 -2.2,1.54z"/>
  </g>
 </g>
</svg>
